Coordinates
version=1
nRows=11
nColumns=40
inDegrees=yes

Units are S.I. units (second, meters, Newtons, ...)
Angles are in degrees.

endheader
time	pelvis_tilt	pelvis_list	pelvis_rotation	pelvis_tx	pelvis_ty	pelvis_tz	hip_flexion_r	hip_adduction_r	hip_rotation_r	knee_angle_r	knee_angle_r_beta	ankle_angle_r	subtalar_angle_r	mtp_angle_r	hip_flexion_l	hip_adduction_l	hip_rotation_l	knee_angle_l	knee_angle_l_beta	ankle_angle_l	subtalar_angle_l	mtp_angle_l	lumbar_extension	lumbar_bending	lumbar_rotation	arm_flex_r	arm_add_r	arm_rot_r	elbow_flex_r	pro_sup_r	wrist_flex_r	wrist_dev_r	arm_flex_l	arm_add_l	arm_rot_l	elbow_flex_l	pro_sup_l	wrist_flex_l	wrist_dev_l
     32.93228571	     -4.50281057	     -5.05526013	      4.12350902	      0.95363543	      0.93339953	      0.49630176	      6.26167166	      5.28883317	    -19.81052286	      9.66227527	      9.66227527	     10.69249523	      6.98795583	     -3.54519896	     34.47706793	    -10.40624426	     -0.70496983	     39.87081724	     39.87081724	      8.07432381	    -16.25249523	     10.36134661	     -8.25739548	      6.31461150	      5.16541928	     33.13477804	    -17.08910870	     -7.62516310	     62.82392496	     45.43569182	      0.00000000	      0.00000000	     -6.54694445	     -6.33664066	      7.97207096	     25.09399812	     43.90995042	      0.00000000	      0.00000000
     32.94457143	     -4.68593161	     -5.09629661	      4.18820645	      0.95243390	      0.93272736	      0.49603112	      5.90433111	      5.36961947	    -19.85377690	      9.42692152	      9.42692152	     10.94750068	      7.19082191	     -3.66958574	     34.51491174	    -10.04585016	     -0.87518428	     35.72983931	     35.72983931	      8.44027405	    -15.11396561	     10.67578046	     -8.19444315	      6.40706747	      5.36334794	     34.84452684	    -17.25691781	     -7.75503414	     63.89155137	     45.41237512	      0.00000000	      0.00000000	     -7.54726298	     -6.13535579	      8.06681476	     24.95412090	     43.89053694	      0.00000000	      0.00000000
     32.95685714	     -4.87481202	     -5.17394942	      4.28505453	      0.95131086	      0.93193190	      0.49558608	      5.55237095	      5.47639907	    -19.94336017	      9.19676210	      9.19676210	     11.22038525	      7.40737966	     -3.80266060	     34.51422049	     -9.68456461	     -0.97921428	     31.67127145	     31.67127145	      8.79597564	    -13.73843514	     10.93489463	     -8.09726978	      6.55664827	      5.48801134	     36.53473225	    -17.37425390	     -7.86202935	     64.96961831	     45.38785067	      0.00000000	      0.00000000	     -8.46709434	     -5.89412713	      8.16084683	     24.84355289	     43.86939568	      0.00000000	      0.00000000
     32.96914286	     -5.04872438	     -5.33330943	      4.38786409	      0.95027547	      0.93101864	      0.49503106	      5.20502839	      5.66018956	    -20.07625783	      9.01196180	      9.01196180	     11.50007997	      7.61463821	     -3.94362556	     34.50475493	     -9.39759645	     -1.06499866	     27.83080256	     27.83080256	      9.10464213	    -12.22233635	     11.18255046	     -8.01668491	      6.82019194	      5.57279457	     38.12552518	    -17.47621531	     -7.95553259	     65.99411695	     45.36427236	      0.00000000	      0.00000000	     -9.33771183	     -5.68101294	      8.24502814	     24.74077096	     43.84910744	      0.00000000	      0.00000000
     32.98142857	     -5.07942285	     -5.37884065	      4.50704503	      0.94951307	      0.93043643	      0.49436377	      4.62871183	      5.72765218	    -20.24234185	      8.74501608	      8.74501608	     11.79030182	      8.03137725	     -4.06308730	     34.19033669	     -9.04411025	     -1.38438905	     24.07517673	     24.07517673	      9.21611299	    -10.47390561	     11.38570709	     -8.06197507	      6.91325768	      5.46319054	     39.60313817	    -17.32484782	     -7.97439984	     67.23681713	     45.33038894	      0.00000000	      0.00000000	    -10.29352482	     -5.55493855	      8.35713237	     24.68104597	     43.82758408	      0.00000000	      0.00000000
     32.99371429	     -5.11607904	     -5.53413655	      4.64077972	      0.94887938	      0.92968240	      0.49360071	      4.02782387	      5.90803102	    -20.61758353	      8.42845263	      8.42845263	     12.07275230	      8.72162198	     -4.12522971	     34.00550415	     -8.80684282	     -1.75204823	     20.86456515	     20.86456515	      9.24044045	     -8.71874403	     11.30925627	     -8.11111945	      7.12345456	      5.30732333	     40.96371114	    -17.16797460	     -7.96686676	     68.67493017	     45.29075217	      0.00000000	      0.00000000	    -11.17686679	     -5.41629665	      8.57044824	     24.90659779	     43.80910562	      0.00000000	      0.00000000
     33.00600000	     -5.21256987	     -5.58815907	      4.76017237	      0.94831866	      0.92895785	      0.49267966	      3.55228781	      5.96551667	    -20.67066923	      8.24003182	      8.24003182	     12.39036885	      8.88845245	     -4.18948915	     33.86314233	     -8.45754050	     -2.23718961	     18.08616210	     18.08616210	      9.11773242	     -7.22602276	     11.69812707	     -8.00294147	      7.24782744	      5.33920568	     42.11317444	    -17.21645892	     -8.02600762	     69.46653504	     45.27320756	      0.00000000	      0.00000000	    -11.84623095	     -5.33939736	      8.68825072	     24.80950839	     43.79459897	      0.00000000	      0.00000000
     33.01828571	     -5.28839911	     -5.67927891	      4.87776474	      0.94789919	      0.92823148	      0.49166810	      3.01276998	      6.07400769	    -20.75802816	      7.98923350	      7.98923350	     12.66474831	      9.13573214	     -4.20373872	     33.80557906	     -8.15663424	     -2.74746736	     15.99914472	     15.99914472	      8.99572599	     -5.98192919	     12.04468218	     -7.92405194	      7.38254872	      5.27109605	     43.18494381	    -17.14048829	     -8.07076384	     70.29579081	     45.25358511	      0.00000000	      0.00000000	    -12.35726179	     -5.23007748	      8.81416164	     24.72301135	     43.78127434	      0.00000000	      0.00000000
     33.03057143	     -5.35602524	     -5.74348967	      4.99420356	      0.94763393	      0.92755062	      0.49055145	      2.45208427	      6.14879355	    -20.82091588	      7.73786354	      7.73786354	     12.94902837	      9.36103171	     -4.19171767	     33.78989797	     -7.85379410	     -3.33368966	     14.57039836	     14.57039836	      8.74797489	     -5.07040940	     12.33912165	     -7.82498867	      7.49981361	      5.19313117	     44.09791917	    -17.03901307	     -8.11757656	     71.05125148	     45.23565907	      0.00000000	      0.00000000	    -12.76458563	     -5.15374596	      8.92011917	     24.63692583	     43.77098679	      0.00000000	      0.00000000
     33.04285714	     -5.38830387	     -5.75155222	      5.08539393	      0.94757107	      0.92693866	      0.48936011	      1.82031599	      6.16680066	    -20.88535100	      7.46294300	      7.46294300	     13.25907336	      9.64177903	     -4.10295097	     33.77906027	     -7.54174743	     -3.95710438	     13.83583531	     13.83583531	      8.42505203	     -4.54475887	     12.48315281	     -7.76044331	      7.50744862	      5.05668498	     44.83219420	    -16.89922946	     -8.18361719	     71.85350143	     45.21670052	      0.00000000	      0.00000000	    -13.13279627	     -5.13913390	      9.03633971	     24.54229653	     43.76294798	      0.00000000	      0.00000000
     33.05514286	     -5.50619341	     -5.74629370	      5.13700204	      0.94758118	      0.92613097	      0.48808281	      1.35310316	      6.13108845	    -20.83690658	      7.34036301	      7.34036301	     13.57916644	      9.73972413	     -4.10833277	     33.93825675	     -7.24124563	     -4.41470604	     13.83103308	     13.83103308	      8.01823898	     -4.59687553	     12.56386001	     -7.53693146	      7.49180525	      5.06867365	     45.42211207	    -16.96893039	     -8.26241205	     72.24114507	     45.20995444	      0.00000000	      0.00000000	    -13.34421164	     -5.16516040	      9.06574000	     24.47019112	     43.75993353	      0.00000000	      0.00000000
